<?xml version="1.0" encoding="UTF-8"?>
<!DOCTYPE svg PUBLIC "-//W3C//DTD SVG 1.1//EN" "http://www.w3.org/Graphics/SVG/1.1/DTD/svg11.dtd">
<svg xmlns="http://www.w3.org/2000/svg" version="1.1" width="156px" height="42px" style="shape-rendering:geometricPrecision; text-rendering:geometricPrecision; image-rendering:optimizeQuality; fill-rule:evenodd; clip-rule:evenodd" xmlns:xlink="http://www.w3.org/1999/xlink">
<g><path style="opacity:0.791" fill="#000000" d="M 90.5,41.5 C 90.1667,41.5 89.8333,41.5 89.5,41.5C 84.4639,37.149 79.6306,32.4823 75,27.5C 74.5026,24.854 74.3359,22.1873 74.5,19.5C 78.2191,19.3683 81.7191,20.035 85,21.5C 86.1667,21.1667 87.3333,20.8333 88.5,20.5C 91.7376,14.9712 95.071,9.47121 98.5,4C 102.817,1.0227 107.651,-0.143966 113,0.5C 116.167,0.666667 119.333,0.833333 122.5,1C 124.359,1.6839 126.026,2.6839 127.5,4C 130.845,9.03205 134.178,14.0321 137.5,19C 142.501,19.2511 147.501,19.0845 152.5,18.5C 152.752,21.3198 152.252,23.9865 151,26.5C 147.274,30.803 143.44,34.9696 139.5,39C 133.464,40.9422 127.464,40.7755 121.5,38.5C 110.981,39.0969 100.647,40.0969 90.5,41.5 Z"/></g>
<g><path style="opacity:0.361" fill="#112a38" d="M 14.5,2.5 C 13.5423,3.9616 12.3756,5.29493 11,6.5C 10.5045,8.4727 10.3379,10.4727 10.5,12.5C 8.05322,12.615 6.05322,13.615 4.5,15.5C 4.06178,15.5654 3.72845,15.3988 3.5,15C 7.11058,12.8343 9.27725,9.66767 10,5.5C 11.129,3.85883 12.629,2.85883 14.5,2.5 Z"/></g>
<g><path style="opacity:1" fill="#36a5e4" d="M 20.5,1.5 C 20.3691,2.37644 20.7025,3.04311 21.5,3.5C 25.1973,4.83495 28.864,6.16828 32.5,7.5C 31.9232,10.5497 33.0899,12.5497 36,13.5C 37.8219,18.8293 35.9885,21.496 30.5,21.5C 29.8333,21.5 29.1667,21.5 28.5,21.5C 27.5,21.5 26.5,21.5 25.5,21.5C 25.1667,14.8333 24.8333,14.8333 24.5,21.5C 22.1667,21.5 19.8333,21.5 17.5,21.5C 17.6567,20.1266 17.49,18.7932 17,17.5C 16.8019,19.3817 16.3019,21.0484 15.5,22.5C 15.1667,22.5 14.8333,22.5 14.5,22.5C 13.8333,22.5 13.1667,22.5 12.5,22.5C 9.21184,22.9844 6.54517,21.9844 4.5,19.5C 4.5,18.1667 4.5,16.8333 4.5,15.5C 6.05322,13.615 8.05322,12.615 10.5,12.5C 10.3379,10.4727 10.5045,8.4727 11,6.5C 12.3756,5.29493 13.5423,3.9616 14.5,2.5C 16.4352,1.85048 18.4352,1.51715 20.5,1.5 Z"/></g>
<g><path style="opacity:0.009" fill="#0a1319" d="M 20.5,1.5 C 24.0429,2.80729 27.7095,3.97396 31.5,5C 32.2524,5.67076 32.5858,6.5041 32.5,7.5C 28.864,6.16828 25.1973,4.83495 21.5,3.5C 20.7025,3.04311 20.3691,2.37644 20.5,1.5 Z"/></g>
<g><path style="opacity:0.204" fill="#0e1d27" d="M 32.5,7.5 C 33.4782,9.53155 34.9782,11.1982 37,12.5C 37.6667,15.1667 37.6667,17.8333 37,20.5C 35.2111,22.229 33.0444,22.8957 30.5,22.5C 30.5,22.1667 30.5,21.8333 30.5,21.5C 35.9885,21.496 37.8219,18.8293 36,13.5C 33.0899,12.5497 31.9232,10.5497 32.5,7.5 Z"/></g>
<g><path style="opacity:0.604" fill="#326753" d="M 12.5,22.5 C 13.1667,22.5 13.8333,22.5 14.5,22.5C 14.6621,24.5273 14.4955,26.5273 14,28.5C 12.9887,29.3366 11.8221,29.67 10.5,29.5C 10.1667,29.5 9.83333,29.5 9.5,29.5C 9.5,28.8333 9.5,28.1667 9.5,27.5C 10.5,27.5 11.5,27.5 12.5,27.5C 12.5,25.8333 12.5,24.1667 12.5,22.5 Z"/></g>
<g><path style="opacity:0.212" fill="#142520" d="M 4.5,19.5 C 6.54517,21.9844 9.21184,22.9844 12.5,22.5C 12.5,24.1667 12.5,25.8333 12.5,27.5C 11.5,27.5 10.5,27.5 9.5,27.5C 8.79105,26.596 7.79105,26.2627 6.5,26.5C 6.5,27.8333 6.5,29.1667 6.5,30.5C 7.79105,30.7373 8.79105,30.404 9.5,29.5C 9.83333,29.5 10.1667,29.5 10.5,29.5C 10.5,30.1667 10.5,30.8333 10.5,31.5C 10.5,31.8333 10.5,32.1667 10.5,32.5C 10.1667,32.5 9.83333,32.5 9.5,32.5C 8.39147,31.71 7.05814,31.21 5.5,31C 3.90571,25.7444 5.73905,24.2444 11,26.5C 11.4828,25.552 11.6495,24.552 11.5,23.5C 9.39605,23.7989 7.39605,23.4656 5.5,22.5C 4.87277,21.5832 4.53944,20.5832 4.5,19.5 Z"/></g>
<g><path style="opacity:0.529" fill="#37735e" d="M 28.5,21.5 C 29.1667,21.5 29.8333,21.5 30.5,21.5C 30.5,21.8333 30.5,22.1667 30.5,22.5C 30.5,22.8333 30.5,23.1667 30.5,23.5C 30.2852,25.1788 30.9519,26.1788 32.5,26.5C 32.5,27.1667 32.5,27.8333 32.5,28.5C 31.1779,28.67 30.0113,28.3366 29,27.5C 28.5045,25.5273 28.3379,23.5273 28.5,21.5 Z"/></g>
<g><path style="opacity:0.008" fill="#151615" d="M 25.5,21.5 C 26.5,21.5 27.5,21.5 28.5,21.5C 28.3379,23.5273 28.5045,25.5273 29,27.5C 30.0113,28.3366 31.1779,28.67 32.5,28.5C 33.7079,29.2341 35.0413,29.5674 36.5,29.5C 36.5,28.1667 36.5,26.8333 36.5,25.5C 35.0413,25.4326 33.7079,25.7659 32.5,26.5C 30.9519,26.1788 30.2852,25.1788 30.5,23.5C 31.2216,23.9175 31.7216,24.5842 32,25.5C 36.6228,23.3223 38.6228,24.6556 38,29.5C 36.3775,30.0989 34.8775,30.7656 33.5,31.5C 30.9213,31.8652 28.588,31.8652 26.5,31.5C 28.4144,30.8153 30.4144,30.3153 32.5,30C 30.8988,29.7266 29.3988,29.2266 28,28.5C 27.8091,26.2922 27.3091,24.2922 26.5,22.5C 25.8333,22.5 25.5,22.1667 25.5,21.5 Z"/></g>
<g><path style="opacity:0.902" fill="#76be8f" d="M 32.5,28.5 C 32.5,27.8333 32.5,27.1667 32.5,26.5C 33.7079,25.7659 35.0413,25.4326 36.5,25.5C 36.5,26.8333 36.5,28.1667 36.5,29.5C 35.0413,29.5674 33.7079,29.2341 32.5,28.5 Z"/></g>
<g><path style="opacity:0.965" fill="#7cc795" d="M 9.5,27.5 C 9.5,28.1667 9.5,28.8333 9.5,29.5C 8.79105,30.404 7.79105,30.7373 6.5,30.5C 6.5,29.1667 6.5,27.8333 6.5,26.5C 7.79105,26.2627 8.79105,26.596 9.5,27.5 Z"/></g>
<g><path style="opacity:0.612" fill="#90383f" d="M 17.5,21.5 C 17.5,22.1667 17.8333,22.5 18.5,22.5C 18.5,26.1667 18.5,29.8333 18.5,33.5C 16.0075,34.7736 13.3408,35.4403 10.5,35.5C 10.5,34.5 10.5,33.5 10.5,32.5C 10.5,32.1667 10.5,31.8333 10.5,31.5C 12.4672,31.2606 14.3005,31.5939 16,32.5C 16.5428,29.1322 16.3761,25.7989 15.5,22.5C 16.3019,21.0484 16.8019,19.3817 17,17.5C 17.49,18.7932 17.6567,20.1266 17.5,21.5 Z"/></g>
<g><path style="opacity:0.523" fill="#24364e" d="M 17.5,21.5 C 19.8333,21.5 22.1667,21.5 24.5,21.5C 24.5,21.8333 24.5,22.1667 24.5,22.5C 22.9519,22.8212 22.2852,23.8212 22.5,25.5C 22.5,25.8333 22.5,26.1667 22.5,26.5C 22.4672,30.8689 22.8005,35.2022 23.5,39.5C 22.5,39.5 21.5,39.5 20.5,39.5C 19.9431,36.1196 19.9431,32.6196 20.5,29C 20.4668,26.3897 19.8001,24.223 18.5,22.5C 17.8333,22.5 17.5,22.1667 17.5,21.5 Z"/></g>
<g><path style="opacity:0.871" fill="#a04349" d="M 25.5,21.5 C 25.5,22.1667 25.8333,22.5 26.5,22.5C 26.5,25.5 26.5,28.5 26.5,31.5C 28.588,31.8652 30.9213,31.8652 33.5,31.5C 33.5,32.5 33.5,33.5 33.5,34.5C 32.7354,34.9234 31.9021,35.2568 31,35.5C 29.1208,33.9872 26.9541,33.3205 24.5,33.5C 24.5,29.8333 24.5,26.1667 24.5,22.5C 24.5,22.1667 24.5,21.8333 24.5,21.5C 24.8333,14.8333 25.1667,14.8333 25.5,21.5 Z"/></g>
<g><path style="opacity:0.026" fill="#16090b" d="M 18.5,22.5 C 19.8001,24.223 20.4668,26.3897 20.5,29C 19.9431,32.6196 19.9431,36.1196 20.5,39.5C 20.19,40.7383 19.69,40.7383 19,39.5C 18.51,38.2068 18.3433,36.8734 18.5,35.5C 15.5448,36.1587 12.5448,36.4921 9.5,36.5C 9.5,35.1667 9.5,33.8333 9.5,32.5C 9.83333,32.5 10.1667,32.5 10.5,32.5C 10.5,33.5 10.5,34.5 10.5,35.5C 13.3408,35.4403 16.0075,34.7736 18.5,33.5C 18.5,29.8333 18.5,26.1667 18.5,22.5 Z"/></g>
<g><path style="opacity:0.025" fill="#12080b" d="M 24.5,22.5 C 24.5,26.1667 24.5,29.8333 24.5,33.5C 26.9541,33.3205 29.1208,33.9872 31,35.5C 31.9021,35.2568 32.7354,34.9234 33.5,34.5C 33.2089,35.6491 32.3756,36.3158 31,36.5C 28.863,35.9233 26.6963,35.59 24.5,35.5C 24.7678,37.099 24.4345,38.4324 23.5,39.5C 22.8005,35.2022 22.4672,30.8689 22.5,26.5C 23.8333,26.1667 23.8333,25.8333 22.5,25.5C 22.2852,23.8212 22.9519,22.8212 24.5,22.5 Z"/></g>
</svg>
